# AST/ASF file generated using VICON BodyLanguage
# -----------------------------------------------
:version 1.10
:name VICON
:units
  mass 1.0
  length 0.45
  angle deg
:documentation
   .ast/.asf automatically generated from VICON data using
   VICON BodyBuilder and BodyLanguage model FoxedUp or BRILLIANT.MOD
:root
   order TX TY TZ RX RY RZ
   axis XYZ
   position 0 0 0  
   orientation 0 0 0 
:bonedata
  begin
     id 1 
     name lhipjoint
     direction 0.643824 -0.71708 0.266994 
     length 2.52133 
     axis 0 0 0  XYZ
  end
  begin
     id 2 
     name lfemur
     direction 0.34202 -0.939693 0  
     length 7.51824  
     axis 0 0 20  XYZ
    dof rx ry rz
    limits (-160.0 20.0)
           (-70.0 70.0)
           (-60.0 70.0)
  end
  begin
     id 3 
     name ltibia
     direction 0.34202 -0.939693 0   
     length 7.3685   
     axis 0 0 20   XYZ
    dof rx
    limits (-10.0 170.0)
  end
  begin
     id 4 
     name lfoot
     direction 0.105419 -0.289636 0.951314   
     length 2.20972   
     axis -90 7.62852e-016 20   XYZ
    dof rx rz
    limits (-45.0 90.0)
           (-70.0 20.0)
  end
  begin
     id 5 
     name ltoes
     direction 1.53549e-011 -4.21833e-011 1   
     length 1.10139   
     axis -90 7.62852e-016 20   XYZ
    dof rx
    limits (-90.0 20.0)
  end
  begin
     id 6 
     name rhipjoint
     direction -0.608823 -0.743445 0.276811   
     length 2.43192  
     axis 0 0 0  XYZ 
  end
  begin
     id 7 
     name rfemur
     direction -0.34202 -0.939693 0   
     length 7.69715   
     axis 0 0 -20   XYZ
    dof rx ry rz
    limits (-160.0 20.0)
           (-70.0 70.0)
           (-70.0 60.0)
  end
  begin
     id 8 
     name rtibia
     direction -0.34202 -0.939693 0   
     length 7.44924   
     axis 0 0 -20   XYZ
    dof rx
    limits (-10.0 170.0)
 end
 begin
     id 9 
     name rfoot
     direction -0.103614 -0.284677 0.953007   
     length 2.22623  
     axis -90 -7.62852e-016 -20   XYZ
    dof rx rz
    limits (-45.0 90.0)
           (-20.0 70.0)
  end
  begin
     id 10 
     name rtoes
     direction -1.53537e-011 -4.22026e-011 1   
     length 1.11   
     axis -90 -7.62852e-016 -20   XYZ
    dof rx
    limits (-90.0 20.0)
  end
  begin
     id 11 
     name lowerback
     direction -0.0101212 0.99662 -0.0815298   
     length 2.08277   
     axis 0 0 0   XYZ
    dof rx ry rz
    limits (-20.0 45.0)
           (-30.0 30.0)
           (-30.0 30.0)
  end
  begin
     id 12 
     name upperback
     direction 0.024314 0.999591 -0.0150645   
     length 2.08524   
     axis 0 0 0   XYZ
    dof rx ry rz
    limits (-20.0 45.0)
           (-30.0 30.0)
           (-30.0 30.0)
  end
  begin
     id 13 
     name thorax
     direction 0.0285959 0.999323 0.0231357   
     length 2.09645   
     axis 0 0 0   XYZ
    dof rx ry rz
    limits (-20.0 45.0)
           (-30.0 30.0)
           (-30.0 30.0)
  end
  begin
     id 14 
     name lowerneck
     direction -0.065512 0.979301 0.191515   
     length 1.63798   
     axis 0 0 0   XYZ
    dof rx ry rz
    limits (-20.0 45.0)
           (-30.0 30.0)
           (-30.0 30.0)
  end
  begin
     id 15 
     name upperneck
     direction 0.0498479 0.98191 -0.182667   
     length 1.68731   
     axis 0 0 0   XYZ
    dof rx ry rz
    limits (-20.0 45.0)
           (-30.0 30.0)
           (-30.0 30.0)
  end
  begin
     id 16
     name head
     direction 0.0230358 0.996257 -0.0833175  
     length 1.69785  
     axis 0 0 0   XYZ
    dof rx ry rz
    limits (-20.0 45.0)
           (-30.0 30.0)
           (-30.0 30.0)
  end
  begin
     id 17 
     name lclavicle
     direction 0.967963 0.201165 -0.150269  
     length 3.63976  
     axis 0 0 0   XYZ
    dof ry rz
    limits (-20.0 10.0)
           (0.0 20.0)
  end
  begin
     id 18 
     name lhumerus
     direction 1 -4.48954e-011 -2.92837e-028   
     length 5.32462   
     axis 180 -30 -90   XYZ
    dof rx ry rz
    limits (-60.0 90.0)
           (-90.0 90.0)
           (-90.0 90.0)
  end
  begin
     id 19
     name lradius
     direction 1 -4.48958e-011 -6.39511e-027   
     length 3.48402   
     axis 180 -30 -90   XYZ
    dof rx
    limits (-10.0 170.0)
  end
  begin
     id 20
     name lwrist
     direction 1 -4.48975e-011 -1.1413e-026   
     length 1.74201   
     axis 6.88575e-015 90 90   XYZ
    dof ry
    limits (-180.0 0.0)
 end
  begin
     id 21 
     name lhand
     direction 1 -4.48899e-011 -2.28192e-026   
     length 0.572476   
     axis 1.45643e-014 90 90   XYZ
    dof rx rz
    limits (-90.0 90.0)
           (-45.0 45.0)
  end
  begin
     id 22 
     name lfingers
     direction 1 -4.49155e-011 -4.5684e-026   
     length 0.461545   
     axis 2.91283e-014 90 90   XYZ
    dof rx
    limits (0.0 90.0)
  end
  begin
     id 23
     name lthumb
     direction 0.707107 -6.34943e-011 0.707107   
     length 0.662688   
     axis -90 45 -2.25915e-014   XYZ
    dof rx rz
    limits (-45.0 45.0)
           (-45.0 45.0)
  end
  begin
     id 24 
     name rclavicle
     direction -0.964103 0.264019 -0.0282629   
     length 3.54491  
     axis 0 0 0   XYZ 
    dof ry rz
    limits (-10.0 20.0)
           (-20.0 0.0)
  end
  begin
     id 25 
     name rhumerus
     direction -1 -4.48964e-011 -2.45032e-027  
     length 5.33589   
     axis 180 30 90   XYZ
    dof rx ry rz
    limits (-90.0 60.0)
           (-90.0 90.0)
           (-90.0 90.0)
  end
  begin
     id 26 
     name rradius
     direction -1 -4.48987e-011 -1.55093e-027   
     length 3.64134   
     axis 180 30 90   XYZ
    dof rx
    limits (-10.0 170.0)
  end
  begin
     id 27 
     name rwrist
     direction -1 -4.4897e-011 -1.14128e-026   
     length 1.82067   
     axis 6.88575e-015 -90 -90   XYZ
    dof ry
    limits (-180.0 0.0)
  end
  begin
     id 28
     name rhand
     direction -1 -4.49021e-011 -2.28301e-026   
     length 0.734811   
     axis 1.45643e-014 -90 -90   XYZ
    dof rx rz
    limits (-90.0 90.0)
           (-45.0 45.0)
  end
  begin
     id 29
     name rfingers
     direction -1 -4.48862e-011 -4.56319e-026   
     length 0.592424   
     axis 2.91283e-014 -90 -90   XYZ
    dof rx
    limits (0.0 90.0)
  end
  begin
     id 30
     name rthumb
     direction -0.707107 -6.34978e-011 0.707107   
     length 0.850605   
     axis -90 -45 2.25915e-014   XYZ
    dof rx rz
    limits (-45.0 45.0)
           (-45.0 45.0)
  end
:hierarchy
  begin
    root lhipjoint rhipjoint lowerback
    lhipjoint lfemur
    lfemur ltibia
    ltibia lfoot
    lfoot ltoes
    rhipjoint rfemur
    rfemur rtibia
    rtibia rfoot
    rfoot rtoes
    lowerback upperback
    upperback thorax
    thorax lowerneck lclavicle rclavicle
    lowerneck upperneck
    upperneck head
    lclavicle lhumerus
    lhumerus lradius
    lradius lwrist
    lwrist lhand lthumb
    lhand lfingers
    rclavicle rhumerus
    rhumerus rradius
    rradius rwrist
    rwrist rhand rthumb
    rhand rfingers
  end

#!OML:ASF F:\VICON\USERDATA\INSTALL\rory3\rory3.ASF
:FULLY-SPECIFIED
:DEGREES
286
root -6.03704 17.9307 4.29704 20.2049 -2.63211 7.72967
lowerback 12.3274 -1.81951 -0.527463
upperback 5.11971 -2.30597 5.67168
thorax -1.26752 -1.21603 6.56307
lowerneck -9.34452 -8.33116 -9.5713
upperneck 30.9777 -12.3972 7.79788
head 13.0167 -5.63081 2.87586
rclavicle -5.725e-014 4.13472e-014
rhumerus 22.6071 -24.7948 -73.0942
rradius 37.855
rwrist -13.966
rhand -33.6993 -20.2846
rfingers 7.12502
rthumb -6.88931 -50.1526
lclavicle -5.725e-014 4.13472e-014
lhumerus 8.61434 -65.1166 82.3184
lradius 76.8055
lwrist 66.9923
lhand -16.9044 51.7379
lfingers 7.12502
lthumb 9.32759 801.512
rfemur -41.1404 -6.54981 17.894
rtibia 36.2324
rfoot -16.9715 -8.59989
rtoes 10.9394
lfemur -17.4074 -10.1952 -20.9918
ltibia 18.7473
lfoot -7.3634 -16.8221
ltoes -2.81298
287
root -6.04888 17.931 4.29653 20.3214 -3.25887 7.57447
lowerback 12.4111 -1.47623 -0.799718
upperback 5.04179 -1.87891 5.77871
thorax -1.43065 -1.00408 6.78691
lowerneck -9.23656 -8.31804 -9.74755
upperneck 30.9957 -12.3479 7.79703
head 13.01 -5.63078 2.9177
rclavicle 2.38542e-014 -6.36111e-015
rhumerus 21.8603 -24.1089 -73.52
rradius 38.5639
rwrist -13.22
rhand -34.0384 -20.5903
rfingers 7.12502
rthumb -7.21665 -50.4473
lclavicle 2.38542e-014 -6.36111e-015
lhumerus 6.69913 -64.8243 83.9113
lradius 76.2619
lwrist 67.9346
lhand -17.8077 52.1404
lfingers 7.12502
lthumb 8.45591 801.951
rfemur -41.3524 -6.03143 17.9506
rtibia 36.1793
rfoot -16.8084 -8.54756
rtoes 10.6139
lfemur -17.5078 -9.71894 -20.9167
ltibia 18.6106
lfoot -6.81794 -16.7098
ltoes -1.62498
288
root -6.06101 17.9341 4.31214 20.2585 -3.24567 7.6274
lowerback 12.4024 -1.3742 -0.912509
upperback 5.05372 -1.75558 5.88269
thorax -1.42066 -0.945631 6.94806
lowerneck -9.02158 -8.30988 -9.90201
upperneck 30.8576 -12.3157 7.83726
head 12.918 -5.63631 2.97151
rclavicle -3.18055e-015 -3.33958e-014
rhumerus 21.1005 -23.4009 -74.0347
rradius 39.2401
rwrist -12.3204
rhand -33.5914 -20.014
rfingers 7.12502
rthumb -6.78519 -49.8852
lclavicle -3.18055e-015 -3.33958e-014
lhumerus 4.81812 -64.3579 85.4715
lradius 75.6104
lwrist 68.3082
lhand -17.7767 52.8805
lfingers 7.12502
lthumb 8.4858 802.69
rfemur -41.2045 -5.91086 17.8647
rtibia 36.1754
rfoot -16.9468 -8.60806
rtoes 10.7048
lfemur -17.3948 -9.78384 -20.8844
ltibia 18.5654
lfoot -6.464 -16.7065
ltoes -0.807132
289
root -6.06968 17.9375 4.33701 19.7509 -2.51738 7.92324
lowerback 12.7083 -1.53975 -0.747213
upperback 5.20816 -1.9495 5.92116
thorax -1.40325 -1.04289 6.92933
lowerneck -8.91697 -8.32209 -9.82452
upperneck 30.7475 -12.2936 7.68581
head 12.829 -5.63765 2.90691
rclavicle -3.49861e-014 3.97569e-014
rhumerus 20.3112 -22.7668 -74.6774
rradius 39.9526
rwrist -11.3097
rhand -33.3196 -19.6759
rfingers 7.12502
rthumb -6.52276 -49.5554
lclavicle -3.49861e-014 3.97569e-014
lhumerus 3.22547 -63.9711 86.6375
lradius 74.9665
lwrist 68.8128
lhand -18.3067 53.3034
lfingers 7.12502
lthumb 7.97428 803.133
rfemur -40.3924 -6.15771 17.559
rtibia 36.2139
rfoot -17.4402 -8.89666
rtoes 10.6777
lfemur -16.7658 -10.0867 -21.0338
ltibia 18.5554
lfoot -6.14935 -17.3925
ltoes -0.713115
290
root -6.07653 17.9313 4.34321 19.8602 -2.52075 7.93209
lowerback 12.5468 -1.40787 -0.63864
upperback 5.25023 -1.76888 5.96044
thorax -1.29674 -0.954707 6.87697
lowerneck -9.0093 -8.38041 -9.80849
upperneck 30.8126 -12.3569 7.62893
head 12.8776 -5.66341 2.86932
rclavicle 3.97569e-014 1.27222e-014
rhumerus 19.5924 -22.1381 -75.3487
rradius 40.575
rwrist -10.2757
rhand -33.5027 -19.3699
rfingers 7.12502
rthumb -6.69949 -49.2439
lclavicle 3.97569e-014 1.27222e-014
lhumerus 1.74517 -63.8007 87.6451
lradius 74.3112
lwrist 70.0432
lhand -20.0012 53.1813
lfingers 7.12502
lthumb 6.33864 803.066
rfemur -40.5031 -5.9483 17.4932
rtibia 36.2572
rfoot -17.5089 -9.00664
rtoes 10.5893
lfemur -16.7937 -9.77729 -21.0552
ltibia 18.5211
lfoot -6.03418 -17.7543
ltoes -1.63191
291
root -6.08765 17.9288 4.34888 19.829 -2.42136 7.98042
lowerback 12.6096 -1.28835 -0.5766
upperback 5.28371 -1.60222 6.02033
thorax -1.31598 -0.871423 6.88584
lowerneck -9.06737 -8.4633 -9.90712
upperneck 30.926 -12.492 7.73601
head 12.9703 -5.7147 2.90448
rclavicle -1.11319e-014 2.8625e-014
rhumerus 18.9805 -21.5846 -76.1049
rradius 40.9321
rwrist -9.08279
rhand -33.6451 -18.5354
rfingers 7.12502
rthumb -6.83693 -48.405
lclavicle -1.11319e-014 2.8625e-014
lhumerus 0.15122 -63.6496 88.7023
lradius 73.7508
lwrist 71.4935
lhand -20.9568 53.6342
lfingers 7.12502
lthumb 5.41603 803.545
rfemur -40.4137 -5.70123 17.3668
rtibia 36.258
rfoot -17.6505 -9.28521
rtoes 10.7498
lfemur -16.801 -9.6068 -21.0725
ltibia 18.6022
lfoot -5.78266 -18.0216
ltoes -1.48491
292
root -6.09714 17.9299 4.35687 19.7894 -2.26934 7.93109
lowerback 12.6507 -1.18688 -0.377786
upperback 5.32047 -1.4434 6.11441
thorax -1.32184 -0.790911 6.8523
lowerneck -9.04527 -8.51765 -9.90966
upperneck 30.9335 -12.5634 7.72365
head 12.9766 -5.74511 2.88994
rclavicle -3.33958e-014 -3.65764e-014
rhumerus 18.3997 -20.8835 -76.7963
rradius 41.1098
rwrist -7.96324
rhand -33.6999 -18.3934
rfingers 7.12502
rthumb -6.88985 -48.2613
lclavicle -3.33958e-014 -3.65764e-014
lhumerus -1.47194 -63.3992 89.7706
lradius 73.2663
lwrist 72.9696
lhand -21.6791 54.4093
lfingers 7.12502
lthumb 4.71859 804.337
rfemur -40.2611 -5.44989 17.3389
rtibia 36.2055
rfoot -17.8097 -9.56326
rtoes 11.1458
lfemur -16.9107 -9.56615 -20.9562
ltibia 18.8611
lfoot -5.44112 -18.1814
ltoes -1.11115
293
root -6.10303 17.9363 4.36462 19.9451 -2.27776 7.84301
lowerback 12.4981 -1.03627 -0.155934
upperback 5.32 -1.22283 6.20459
thorax -1.26969 -0.679839 6.78645
lowerneck -9.03948 -8.56821 -9.85415
upperneck 30.8827 -12.5995 7.6027
head 12.9439 -5.76633 2.82807
rclavicle 1.11319e-014 -3.02153e-014
rhumerus 17.8176 -20.0122 -77.4511
rradius 41.2446
rwrist -6.94207
rhand -33.6828 -18.9174
rfingers 7.12502
rthumb -6.87341 -48.7858
lclavicle 1.11319e-014 -3.02153e-014
lhumerus -3.07302 -63.0141 90.85
lradius 72.7874
lwrist 74.5809
lhand -22.6187 55.2329
lfingers 7.12502
lthumb 3.81135 805.179
rfemur -40.3853 -5.36248 17.431
rtibia 36.1709
rfoot -17.7634 -9.55669
rtoes 11.5023
lfemur -17.2053 -9.46271 -20.831
ltibia 19.1078
lfoot -5.23568 -18.1954
ltoes -1.07243
294
root -6.10933 17.9422 4.37175 20.1868 -2.4945 8.14988
lowerback 12.2764 -0.810576 -0.372219
upperback 5.29741 -0.95751 6.172
thorax -1.20165 -0.550872 6.83466
lowerneck -9.1144 -8.66987 -9.84776
upperneck 30.9153 -12.7243 7.55548
head 12.984 -5.81902 2.78576
rclavicle 3.65764e-014 -4.45278e-014
rhumerus 17.1864 -19.1725 -78.1336
rradius 41.3098
rwrist -5.85098
rhand -33.2997 -19.0359
rfingers 7.12502
rthumb -6.50354 -48.916
lclavicle 3.65764e-014 -4.45278e-014
lhumerus -4.58956 -62.6377 91.8246
lradius 72.3877
lwrist 76.3354
lhand -23.7437 56.2225
lfingers 7.12502
lthumb 2.72492 806.185
rfemur -40.6545 -5.2386 17.0492
rtibia 36.127
rfoot -17.7 -9.58936
rtoes 11.056
lfemur -17.6739 -9.31744 -21.1759
ltibia 19.465
lfoot -5.21148 -18.202
ltoes -1.07043
295
root -6.11548 17.9379 4.38503 20.3428 -2.62194 8.57728
lowerback 12.0392 -0.623065 -0.661699
upperback 5.29392 -0.750295 6.12853
thorax -1.09806 -0.452721 6.92197
lowerneck -9.05211 -8.78164 -9.88909
upperneck 30.9342 -12.8801 7.56139
head 13.0011 -5.88859 2.77265
rclavicle -1.43125e-014 -1.59028e-014
rhumerus 16.4874 -18.2062 -78.7317
rradius 41.2826
rwrist -4.8797
rhand -32.7902 -18.968
rfingers 7.12502
rthumb -6.01164 -48.8627
lclavicle -1.43125e-014 -1.59028e-014
lhumerus -6.09734 -62.2137 92.7735
lradius 72.0472
lwrist 78.1013
lhand -24.972 57.295
lfingers 7.12502
lthumb 1.53863 807.269
rfemur -40.7475 -4.76255 16.3416
rtibia 36.0742
rfoot -17.9763 -9.94509
rtoes 11.1312
lfemur -18.0446 -9.19872 -21.6811
ltibia 19.8782
lfoot -5.26748 -18.2261
ltoes -1.49827
296
root -6.11952 17.9352 4.39806 20.2694 -2.39492 8.31238
lowerback 12.0295 -0.542702 -0.158402
upperback 5.35832 -0.589111 6.3163
thorax -1.04923 -0.369073 6.8116
lowerneck -8.8624 -8.85327 -10.0218
upperneck 30.8378 -12.9741 7.6192
head 12.9476 -5.94164 2.80923
rclavicle -2.54444e-014 4.13472e-014
rhumerus 15.7457 -16.8846 -79.183
rradius 41.238
rwrist -4.25904
rhand -32.4998 -19.3117
rfingers 7.12502
rthumb -5.73129 -49.2141
lclavicle -2.54444e-014 4.13472e-014
lhumerus -7.57801 -61.5093 93.7132
lradius 71.7872
lwrist 79.5299
lhand -25.6501 59.3561
lfingers 7.12502
lthumb 0.883704 809.334
rfemur -40.4889 -4.42115 16.4907
rtibia 36.0218
rfoot -18.297 -10.1673
rtoes 11.7446
lfemur -18.1142 -9.0121 -21.4214
ltibia 20.276
lfoot -5.31993 -18.389
ltoes -2.17465
297
root -6.12336 17.9398 4.40773 20.1807 -2.15364 8.0246
lowerback 12.0854 -0.458194 0.386817
upperback 5.44274 -0.416662 6.52211
thorax -1.01417 -0.279159 6.69679
lowerneck -8.7792 -8.94168 -10.129
upperneck 30.741 -13.0745 7.63156
head 12.9115 -5.99622 2.81815
rclavicle 2.54444e-014 -1.27222e-014
rhumerus 14.9503 -15.3989 -79.5415
rradius 41.2006
rwrist -3.71679
rhand -31.9723 -19.6933
rfingers 7.12502
rthumb -5.22195 -49.6089
lclavicle 2.54444e-014 -1.27222e-014
lhumerus -9.06055 -61.0419 94.5787
lradius 71.7569
lwrist 81.7499
lhand -27.9862 60.4679
lfingers 7.12502
lthumb -1.3726 629.557
rfemur -40.2554 -4.51197 16.8524
rtibia 35.9653
rfoot -18.372 -10.0819
rtoes 12.1449
lfemur -18.1938 -8.89483 -21.0976
ltibia 20.6885
lfoot -5.25686 -18.5569
ltoes -2.34777
